  0
SECTION
  2
ENTITIES
  0
3DFACE
  8
DELAUNEY0
 62
252
 10
105.567307
 20
40.274231
 30
0.302283
 11
105.514229
 21
40.267307
 31
0.298990
 12
105.538078
 22
40.300385
 32
0.278740
  0
3DFACE
  8
DELAUNEY1
 62
252
 10
105.598846
 20
40.273460
 30
0.354882
 11
105.567307
 21
40.274231
 31
0.302283
 12
105.580383
 22
40.318848
 32
0.265462
  0
3DFACE
  8
DELAUNEY2
 62
252
 10
105.635773
 20
40.301155
 30
0.294385
 11
105.598846
 21
40.273460
 31
0.354882
 12
105.580383
 22
40.318848
 32
0.265462
  0
3DFACE
  8
DELAUNEY3
 62
252
 10
105.673462
 20
40.268078
 30
0.385080
 11
105.635773
 21
40.301155
 31
0.294385
 12
105.669617
 22
40.320385
 32
0.326538
  0
3DFACE
  8
DELAUNEY4
 62
252
 10
105.673462
 20
40.268078
 30
0.385080
 11
105.721153
 21
40.271152
 31
0.315194
 12
105.707306
 22
40.300385
 32
0.349049
  0
3DFACE
  8
DELAUNEY5
 62
252
 10
105.721153
 20
40.271152
 30
0.315194
 11
105.733459
 21
40.269615
 31
0.332899
 12
105.707306
 22
40.300385
 32
0.349049
  0
3DFACE
  8
DELAUNEY6
 62
252
 10
105.538078
 20
40.300385
 30
0.278740
 11
105.514229
 21
40.267307
 31
0.298990
 12
105.567307
 22
40.274231
 32
0.302283
  0
3DFACE
  8
DELAUNEY7
 62
252
 10
105.538078
 20
40.300385
 30
0.278740
 11
105.514229
 21
40.267307
 31
0.298990
 12
105.517311
 22
40.311153
 32
0.278818
  0
3DFACE
  8
DELAUNEY8
 62
252
 10
105.567307
 20
40.274231
 30
0.302283
 11
105.538078
 21
40.300385
 31
0.278740
 12
105.580383
 22
40.318848
 32
0.265462
  0
3DFACE
  8
DELAUNEY9
 62
252
 10
105.673462
 20
40.268078
 30
0.385080
 11
105.707306
 21
40.300385
 31
0.349049
 12
105.669617
 22
40.320385
 32
0.326538
  0
3DFACE
  8
DELAUNEY10
 62
252
 10
105.721153
 20
40.271152
 30
0.315194
 11
105.707306
 21
40.300385
 31
0.349049
 12
105.733459
 22
40.269615
 32
0.332899
  0
3DFACE
  8
DELAUNEY11
 62
252
 10
105.538078
 20
40.300385
 30
0.278740
 11
105.517311
 21
40.311153
 31
0.278818
 12
105.541153
 22
40.325001
 32
0.280323
  0
3DFACE
  8
DELAUNEY12
 62
252
 10
105.598846
 20
40.273460
 30
0.354882
 11
105.580383
 21
40.318848
 31
0.265462
 12
105.635773
 22
40.301155
 32
0.294385
  0
3DFACE
  8
DELAUNEY13
 62
252
 10
105.635773
 20
40.301155
 30
0.294385
 11
105.669617
 21
40.320385
 31
0.326538
 12
105.609619
 22
40.341923
 32
0.256334
  0
3DFACE
  8
DELAUNEY14
 62
252
 10
105.707306
 20
40.300385
 30
0.349049
 11
105.669617
 21
40.320385
 31
0.326538
 12
105.705002
 22
40.310383
 32
0.369315
  0
3DFACE
  8
DELAUNEY15
 62
252
 10
105.580383
 20
40.318848
 30
0.265462
 11
105.538078
 21
40.300385
 31
0.278740
 12
105.541153
 22
40.325001
 32
0.280323
  0
3DFACE
  8
DELAUNEY16
 62
252
 10
105.705002
 20
40.310383
 30
0.369315
 11
105.669617
 21
40.320385
 31
0.326538
 12
105.709618
 22
40.352692
 32
0.359815
  0
3DFACE
  8
DELAUNEY17
 62
252
 10
105.635773
 20
40.301155
 30
0.294385
 11
105.580383
 21
40.318848
 31
0.265462
 12
105.609619
 22
40.341923
 32
0.256334
  0
3DFACE
  8
DELAUNEY18
 62
252
 10
105.541153
 20
40.325001
 30
0.280323
 11
105.580383
 21
40.318848
 31
0.265462
 12
105.590385
 22
40.361153
 32
0.250853
  0
3DFACE
  8
DELAUNEY19
 62
252
 10
105.609619
 20
40.341923
 30
0.256334
 11
105.580383
 21
40.318848
 31
0.265462
 12
105.590385
 22
40.361153
 32
0.250853
  0
3DFACE
  8
DELAUNEY20
 62
252
 10
105.541153
 20
40.325001
 30
0.280323
 11
105.517311
 21
40.311153
 31
0.278818
 12
105.531151
 22
40.346539
 32
0.246694
  0
3DFACE
  8
DELAUNEY21
 62
252
 10
105.531151
 20
40.346539
 30
0.246694
 11
105.541153
 21
40.325001
 31
0.280323
 12
105.590385
 22
40.361153
 32
0.250853
  0
3DFACE
  8
DELAUNEY22
 62
252
 10
105.669617
 20
40.320385
 30
0.326538
 11
105.709618
 21
40.352692
 31
0.359815
 12
105.663460
 22
40.355770
 32
0.287866
  0
3DFACE
  8
DELAUNEY23
 62
252
 10
105.609619
 20
40.341923
 30
0.256334
 11
105.669617
 21
40.320385
 31
0.326538
 12
105.663460
 22
40.355770
 32
0.287866
  0
3DFACE
  8
DELAUNEY24
 62
252
 10
105.663460
 20
40.355770
 30
0.287866
 11
105.609619
 21
40.341923
 31
0.256334
 12
105.630386
 22
40.380386
 32
0.278818
  0
3DFACE
  8
DELAUNEY25
 62
252
 10
105.514999
 20
40.361153
 30
0.254346
 11
105.531151
 21
40.346539
 31
0.246694
 12
105.558846
 22
40.380386
 32
0.243467
  0
3DFACE
  8
DELAUNEY26
 62
252
 10
105.609619
 20
40.341923
 30
0.256334
 11
105.590385
 21
40.361153
 31
0.250853
 12
105.630386
 22
40.380386
 32
0.278818
  0
3DFACE
  8
DELAUNEY27
 62
252
 10
105.663460
 20
40.355770
 30
0.287866
 11
105.709618
 21
40.352692
 31
0.359815
 12
105.707306
 22
40.383461
 32
0.303111
  0
3DFACE
  8
DELAUNEY28
 62
252
 10
105.590385
 20
40.361153
 30
0.250853
 11
105.531151
 21
40.346539
 31
0.246694
 12
105.558846
 22
40.380386
 32
0.243467
  0
3DFACE
  8
DELAUNEY29
 62
252
 10
105.531151
 20
40.346539
 30
0.246694
 11
105.558846
 21
40.380386
 31
0.243467
 12
105.514999
 22
40.361153
 32
0.254346
  0
3DFACE
  8
DELAUNEY30
 62
252
 10
105.590385
 20
40.361153
 30
0.250853
 11
105.558846
 21
40.380386
 31
0.243467
 12
105.611153
 22
40.414230
 32
0.303338
  0
3DFACE
  8
DELAUNEY31
 62
252
 10
105.663460
 20
40.355770
 30
0.287866
 11
105.630386
 21
40.380386
 31
0.278818
 12
105.668076
 22
40.400383
 32
0.323128
  0
3DFACE
  8
DELAUNEY32
 62
252
 10
105.590385
 20
40.361153
 30
0.250853
 11
105.630386
 21
40.380386
 31
0.278818
 12
105.611153
 22
40.414230
 32
0.303338
  0
3DFACE
  8
DELAUNEY33
 62
252
 10
105.707306
 20
40.383461
 30
0.303111
 11
105.663460
 21
40.355770
 31
0.287866
 12
105.688843
 22
40.394230
 32
0.332809
  0
3DFACE
  8
DELAUNEY34
 62
252
 10
105.688843
 20
40.394230
 30
0.332809
 11
105.663460
 21
40.355770
 31
0.287866
 12
105.668076
 22
40.400383
 32
0.323128
  0
3DFACE
  8
DELAUNEY35
 62
252
 10
105.688843
 20
40.394230
 30
0.332809
 11
105.707306
 21
40.383461
 31
0.303111
 12
105.730385
 22
40.413460
 32
0.369217
  0
3DFACE
  8
DELAUNEY36
 62
252
 10
105.514999
 20
40.361153
 30
0.254346
 11
105.558846
 21
40.380386
 31
0.243467
 12
105.511925
 22
40.407307
 32
0.268418
  0
3DFACE
  8
DELAUNEY37
 62
252
 10
105.688843
 20
40.394230
 30
0.332809
 11
105.668076
 21
40.400383
 31
0.323128
 12
105.703461
 22
40.434231
 32
0.375447
  0
3DFACE
  8
DELAUNEY38
 62
252
 10
105.668076
 20
40.400383
 30
0.323128
 11
105.630386
 21
40.380386
 31
0.278818
 12
105.611153
 22
40.414230
 32
0.303338
  0
3DFACE
  8
DELAUNEY39
 62
252
 10
105.511925
 20
40.407307
 30
0.268418
 11
105.558846
 21
40.380386
 31
0.243467
 12
105.549614
 22
40.419617
 32
0.289999
  0
3DFACE
  8
DELAUNEY40
 62
252
 10
105.611153
 20
40.414230
 30
0.303338
 11
105.558846
 21
40.380386
 31
0.243467
 12
105.549614
 22
40.419617
 32
0.289999
  0
3DFACE
  8
DELAUNEY41
 62
252
 10
105.511925
 20
40.407307
 30
0.268418
 11
105.549614
 21
40.419617
 31
0.289999
 12
105.548843
 22
40.445770
 32
0.298354
  0
3DFACE
  8
DELAUNEY42
 62
252
 10
105.611153
 20
40.414230
 30
0.303338
 11
105.549614
 21
40.419617
 31
0.289999
 12
105.584229
 22
40.451923
 32
0.343461
  0
3DFACE
  8
DELAUNEY43
 62
252
 10
105.688843
 20
40.394230
 30
0.332809
 11
105.730385
 21
40.413460
 31
0.369217
 12
105.703461
 22
40.434231
 32
0.375447
  0
3DFACE
  8
DELAUNEY44
 62
252
 10
105.611153
 20
40.414230
 30
0.303338
 11
105.668076
 21
40.400383
 31
0.323128
 12
105.635002
 22
40.438076
 32
0.310700
  0
3DFACE
  8
DELAUNEY45
 62
252
 10
105.611153
 20
40.414230
 30
0.303338
 11
105.635002
 21
40.438076
 31
0.310700
 12
105.584229
 22
40.451923
 32
0.343461
  0
3DFACE
  8
DELAUNEY46
 62
252
 10
105.668076
 20
40.400383
 30
0.323128
 11
105.635002
 21
40.438076
 31
0.310700
 12
105.671921
 22
40.453461
 32
0.365362
  0
3DFACE
  8
DELAUNEY47
 62
252
 10
105.730385
 20
40.413460
 30
0.369217
 11
105.703461
 21
40.434231
 31
0.375447
 12
105.731926
 22
40.478077
 32
0.304800
  0
3DFACE
  8
DELAUNEY48
 62
252
 10
105.668076
 20
40.400383
 30
0.323128
 11
105.703461
 21
40.434231
 31
0.375447
 12
105.671921
 22
40.453461
 32
0.365362
  0
3DFACE
  8
DELAUNEY49
 62
252
 10
105.549614
 20
40.419617
 30
0.289999
 11
105.584229
 21
40.451923
 31
0.343461
 12
105.548843
 22
40.445770
 32
0.298354
  0
3DFACE
  8
DELAUNEY50
 62
252
 10
105.671921
 20
40.453461
 30
0.365362
 11
105.703461
 21
40.434231
 31
0.375447
 12
105.716537
 22
40.474232
 32
0.329539
  0
3DFACE
  8
DELAUNEY51
 62
252
 10
105.671921
 20
40.453461
 30
0.365362
 11
105.635002
 21
40.438076
 31
0.310700
 12
105.655769
 22
40.484230
 32
0.360903
  0
3DFACE
  8
DELAUNEY52
 62
252
 10
105.548843
 20
40.445770
 30
0.298354
 11
105.511925
 21
40.407307
 31
0.268418
 12
105.510384
 22
40.460384
 32
0.270299
  0
3DFACE
  8
DELAUNEY53
 62
252
 10
105.548843
 20
40.445770
 30
0.298354
 11
105.584229
 21
40.451923
 31
0.343461
 12
105.561157
 22
40.483463
 32
0.340498
  0
3DFACE
  8
DELAUNEY54
 62
252
 10
105.548843
 20
40.445770
 30
0.298354
 11
105.510384
 21
40.460384
 31
0.270299
 12
105.561157
 22
40.483463
 32
0.340498
  0
3DFACE
  8
DELAUNEY55
 62
252
 10
105.584229
 20
40.451923
 30
0.343461
 11
105.635002
 21
40.438076
 31
0.310700
 12
105.609619
 22
40.478077
 32
0.362440
  0
3DFACE
  8
DELAUNEY56
 62
252
 10
105.731926
 20
40.478077
 30
0.304800
 11
105.703461
 21
40.434231
 31
0.375447
 12
105.716537
 22
40.474232
 32
0.329539
  0
3DFACE
  8
DELAUNEY57
 62
252
 10
105.609619
 20
40.478077
 30
0.362440
 11
105.584229
 21
40.451923
 31
0.343461
 12
105.561157
 22
40.483463
 32
0.340498
  0
3DFACE
  8
DELAUNEY58
 62
252
 10
105.609619
 20
40.478077
 30
0.362440
 11
105.635002
 21
40.438076
 31
0.310700
 12
105.655769
 22
40.484230
 32
0.360903
  0
3DFACE
  8
DELAUNEY59
 62
252
 10
105.671921
 20
40.453461
 30
0.365362
 11
105.716537
 21
40.474232
 31
0.329539
 12
105.655769
 22
40.484230
 32
0.360903
  0
ENDSEC
  0
EOF
